# xmcd
#
# Track frame offsets: 
#        150
#        14218
#        19194
#        31907
#        43660
#        49401
#        63716
#        76347
#        82040
#        94222
#        107459
#        121351
#        124872
#        137397
#        150024
#        164065
#        169807
#        183995
#        197025
#        202686
#        213545
#        225547
#        229116
#        244040
#        257286
#        271646
#        287215
#        300425
#        320422
#        332913
#        346897
#
# Disc length: 4785 seconds
#
# Revision: 0
# Processed by: cddbd v1.5.2PL0 Copyright (c) Steve Scherf et al.
# Submitted via: ExactAudioCopy v0.90b4
#
DISCID=ab12af1f
DTITLE=Various Artist - Broadcasting the Blues, volume 3
DYEAR=2005
DGENRE=Blues
TTITLE0=Memphis Jug Band - Aunt Caroline Dyer Blues (1930)
TTITLE1=Willie Shade Interview - 'Aunt Caroline Dyer...'
TTITLE2=Bumble Bee Slim - Policy Dream Blues (1935)
TTITLE3=Kansas Joe and Memphis Minnie - North Memphis Blues (1930)
TTITLE4=Stump Johnson Interview - 'The Levee At St Louis...'
TTITLE5=Lucille Bogan - They Ain't Walkin' No More (1930)
TTITLE6=Whistlin' Alex Moore - Ice Pick Blues (1929)
TTITLE7=Lonnie Johnson Interview - 'They ganged him to death' (death O
TTITLE7=f Sonny Boy Williamson)
TTITLE8=Bukka White - Parchman Farm Blues (1940)
TTITLE9=Hambone Willie Newbern - Shelby County Workhouse Blues (1929)
TTITLE10=Peetle Wheatshaw - Working On The Project (1937)
TTITLE11=Black Ace Interview - 'Depression time...I would play house p
TTITLE11=arties'
TTITLE12=Carl Martin - Let's Have A New Deal (1935)
TTITLE13=Mattie Delaney - Tallahatchie River Blues (1930)
TTITLE14=Lonnie Johnson - St Louis Cyclone Blues (1927)
TTITLE15=John Lee Hooker Interview - 'That's what makes the blues...'
TTITLE16=Sleepy John Estes - Fire Department Blues (1938)
TTITLE17=Big Boy Crupup - Give Me A 32-20 (1942)
TTITLE18=Prof Raylord Logan Interview - 'When we arrived in france...'
TTITLE19=Mr Honey - Build A Cave (1951)
TTITLE20=Red Nelson - Crying Mother Blues (1936)
TTITLE21=Speckled Red Interview - 'They was real bad words...'
TTITLE22=Speckled Red - The Dirty Dozen (1929)
TTITLE23=Blind Boy Fuller - Three Ball Blues (1940)
TTITLE24=Kokomo Arnold - Milk Cow Blues (1934)
TTITLE25=Tommy Johnson - Cool Drink Of Water Blues (1928)
TTITLE26=Charley Patton - Some Summer Day (1930)
TTITLE27=Mama Yancey - Make Me A Pallet On The Floor (1943)
TTITLE28=Charlie Jackson - Long Gone Lost John (1928)
TTITLE29=Meade 'Lux' Lewis - Spirit Of Boogie Woogie (1942)
TTITLE30=Rev F.W. Mcgee - Fifty Miles Of Elbow Room (1930)
EXTD=
EXTT0=
EXTT1=
EXTT2=
EXTT3=
EXTT4=
EXTT5=
EXTT6=
EXTT7=
EXTT8=
EXTT9=
EXTT10=
EXTT11=
EXTT12=
EXTT13=
EXTT14=
EXTT15=
EXTT16=
EXTT17=
EXTT18=
EXTT19=
EXTT20=
EXTT21=
EXTT22=
EXTT23=
EXTT24=
EXTT25=
EXTT26=
EXTT27=
EXTT28=
EXTT29=
EXTT30=
PLAYORDER=
